<svg width="228" height="100" viewBox="0 0 228 100" fill="none" xmlns="http://www.w3.org/2000/svg">
<g clip-path="url(#clip0_150_2)">
<path d="M137.329 69.478H168.282V82.0696H122.39V17.4116H137.329V69.478Z" fill="white"/>
<path d="M201.13 57.4194H213.295V68.7336C211.062 69.5852 206.682 70.4367 202.526 70.4367C189.075 70.4367 184.601 63.6073 184.601 49.7385C184.601 36.5026 188.859 28.7138 202.299 28.7138C209.79 28.7138 214.039 31.064 217.564 35.546L226.858 27.0078C221.181 18.9153 211.277 16.4628 201.976 16.4628C181.067 16.4543 170.074 27.8594 170.074 49.6278C170.074 71.2883 180.008 83.0311 201.865 83.0311C211.902 83.0311 221.712 80.4765 227.051 76.7325V45.3615H201.13V57.4194Z" fill="white"/>
<path d="M85.3569 85.3584C104.883 65.8322 104.882 34.173 85.3548 14.6457C65.8275 -4.88164 34.1684 -4.88254 14.6422 14.6437C-4.88404 34.1699 -4.88314 65.829 14.6442 85.3564C34.1715 104.884 65.8306 104.885 85.3569 85.3584Z" fill="#A50034"/>
<path d="M62.231 67.2809H52.0124V28.8875H48.2344V71.0703H52.0209V71.0447H62.2395L62.231 67.2809Z" fill="white"/>
<path d="M87.7166 51.5896H62.2894V47.8229H91.4435C91.4832 48.5524 91.5031 49.2819 91.5031 50.0199C91.5031 72.6995 73.0189 91.0815 50.223 91.0815C27.4271 91.0815 8.93997 72.708 8.93997 50.0171C8.93997 27.3262 27.4214 8.95551 50.2201 8.95551C50.8219 8.95551 51.4208 8.9678 52.0169 8.9924V12.7307C51.4208 12.7042 50.8238 12.691 50.2258 12.691C29.5048 12.691 12.701 29.404 12.701 50.0171C12.701 70.6302 29.502 87.3461 50.2258 87.3461C70.3791 87.3461 86.8423 71.5328 87.7137 51.6946L87.7166 51.5896Z" fill="white"/>
<path d="M34.8294 40.2522C35.9695 40.2466 37.0824 39.9034 38.0277 39.2659C38.9729 38.6284 39.7081 37.7252 40.1405 36.6703C40.573 35.6154 40.6832 34.456 40.4573 33.3385C40.2315 32.221 39.6796 31.1954 38.8715 30.3912C38.0633 29.587 37.0351 29.0402 35.9164 28.8198C34.7978 28.5995 33.639 28.7154 32.5862 29.153C31.5334 29.5906 30.6338 30.3302 30.001 31.2785C29.3681 32.2269 29.0304 33.3415 29.0304 34.4816C29.0323 35.2413 29.1837 35.9931 29.4762 36.6943C29.7686 37.3954 30.1963 38.0321 30.7348 38.5679C31.2733 39.1038 31.912 39.5283 32.6146 39.8173C33.3172 40.1063 34.0698 40.2541 34.8294 40.2522Z" fill="white"/>
</g>
<defs>
<clipPath id="clip0_150_2">
<rect width="227.059" height="100" fill="white"/>
</clipPath>
</defs>
</svg>
